# xmcd
#
# Track frame offsets: 
#        150
#        13661
#        30922
#        45464
#        61938
#        78292
#        93924
#        106927
#        125304
#        143661
#        165225
#        183000
#        204785
#        229518
#
# Disc length: 3563 seconds
#
# Revision: 2
# Processed by: cddbd v1.5.2PL0 Copyright (c) Steve Scherf et al.
# Submitted via: ExactAudioCopy v1.0b1
#
DISCID=910de90e
DTITLE=Reba McEntire - Keep On Loving You
DYEAR=2009
DGENRE=Country
TTITLE0=Strange
TTITLE1=Just When I Thought I'd Stopped Loving You
TTITLE2=I Keep On Lovin' You
TTITLE3=I Want a Cowboy
TTITLE4=Consider Me Gone
TTITLE5=But Why
TTITLE6=Pink Guitar
TTITLE7=She's Turning 50 Today
TTITLE8=Eight Crazy Hours (In the Story of Love)
TTITLE9=Nothing to Lose
TTITLE10=Over You
TTITLE11=Maggie Creek Road
TTITLE12=I'll Have What She's Having
TTITLE13=Data
EXTD=
EXTT0=
EXTT1=
EXTT2=
EXTT3=
EXTT4=
EXTT5=
EXTT6=
EXTT7=
EXTT8=
EXTT9=
EXTT10=
EXTT11=
EXTT12=
EXTT13=
PLAYORDER=
